# xmcd
#
# Track frame offsets:
#  150
#  3315
#  20788
#  34432
#  46796
#  58760
#  67632
#  76324
#  88720
#  101109
#  113423
#  124217
#  136294
#  150323
#  162838
#  175523
#  185564
#  198763
#  210970
#  225577
#  238773
#  251703
#  264698
#  277550
#  288066
#  298604
#  310257
#  316332
#  327835
#  339623
#
# Disc length: 4676 seconds
#
# Revision: 1
# Processed by: cddbd v1.5.1PL2 Copyright (c) Steve Scherf et al.
# Submitted via: Collectorz.com_Music_Collector 6.10
#
DISCID=9312421e
DTITLE=Various Artist - "Cat Music" Wants To Share With You - Unreleased and Alternate Takes
DYEAR=2005
DGENRE=Doo-Wop
TTITLE0=Drifters, The - Let The Boogie Woogie Roll - T1
TTITLE1=Drifters, The - Let The Boogie Woogie Roll - T3,4,5,6
TTITLE2=Drifters, The - Let The Boogie Woogoe Roll - T7
TTITLE3=Drifters, The - Warm Your Heart - T7
TTITLE4=Drifters, The - Warm Your Heart - T9
TTITLE5=Chords, The - Heartbeat - T12
TTITLE6=Chords, The - Heartbeat - T13
TTITLE7=Drifters, The - Bip Bam - T7
TTITLE8=Drifters, The - Bip Bam - T12
TTITLE9=Drifters, The - Bip Bam - T13
TTITLE10=Harptones, The - Insulting Blues Boogie
TTITLE11=Playboys, The - Good Golly Miss Molly - T4
TTITLE12=Playboys, The - Good Golly Miss Molly - T5,6
TTITLE13=Playboys, The - Good Golly Miss Molly - T8
TTITLE14=Playboys, The - Good Golly Miss Molly - T10
TTITLE15=WIlson, Jackie "Sonny" - Rainy Day Blues
TTITLE16=Drifters, The - Gone - T7
TTITLE17=Chords, The - Pretty Wild - T27
TTITLE18=Playboys, The - My Buddie Stole My Chippie - T3
TTITLE19=Playboys, The - My Buddie Stole My Chippie - T5
TTITLE20=Drifters, The - Don't Dog Me - T11
TTITLE21=Drifters, The - Don't Dog Me - T12
TTITLE22=Drifters, The - Don't Dog Me - T13
TTITLE23=Chords, The - Love Oh Love - T7
TTITLE24=Chords, The - Love Oh Love - T13
TTITLE25=Playboys, The - My Little Honeybun - T6
TTITLE26=Playboys, The - My Little Honeybun - T8a
TTITLE27=Playboys, The - My Little Honeybun T8b
TTITLE28=Playboys, The - My Little Honeybun - T9
TTITLE29=Drifters, The - Such A Night - T5
EXTD=
EXTT0=
EXTT1=
EXTT2=
EXTT3=
EXTT4=
EXTT5=
EXTT6=
EXTT7=
EXTT8=
EXTT9=
EXTT10=
EXTT11=
EXTT12=
EXTT13=
EXTT14=
EXTT15=
EXTT16=
EXTT17=
EXTT18=
EXTT19=
EXTT20=
EXTT21=
EXTT22=
EXTT23=
EXTT24=
EXTT25=
EXTT26=
EXTT27=
EXTT28=
EXTT29=
PLAYORDER=
